<svg width="410" height="410" viewBox="0 0 410 410" fill="none" xmlns="http://www.w3.org/2000/svg">
<path d="M327.978 0H81.0225C36.275 0 0 36.275 0 81.0225V327.978C0 372.725 36.275 409 81.0225 409H327.978C372.725 409 409 372.725 409 327.978V81.0225C409 36.275 372.725 0 327.978 0Z" fill="url(#paint0_linear)"/>
<path fill-rule="evenodd" clip-rule="evenodd" d="M316 64.0001C320.8 68.8001 325 61.4001 338 74.4001C345.4 81.8001 340.6 88.6001 346 94.0001C348.4 96.4001 359.2 95.4001 353.2 78.2001C344.6 54.2001 319.4 51.8001 316 55.4001C313.4 58.0001 313.4 61.4001 316 64.0001V64.0001Z" fill="#FEFDFD"/>
<path fill-rule="evenodd" clip-rule="evenodd" d="M324.4 38.6001C328.4 42.8001 327 41.0001 333.8 42.0001C349.2 44.0001 360.4 53.4001 365.4 68.2001C368.8 78.2001 365.2 79.6001 369.6 84.0001C374 88.4001 383.4 85.2001 376.6 65.0001C365.8 32.4001 330.4 26.4001 324.8 31.8001C323.4 33.2001 322.8 37.2001 324.4 38.6001V38.6001Z" fill="#FEFDFD"/>
<path fill-rule="evenodd" clip-rule="evenodd" d="M350.802 193.762C350.802 199.089 355.63 200.199 358.183 203.972C355.63 207.746 350.802 208.911 350.802 214.183C350.802 216.791 353.133 218.345 356.24 218.345C358.072 218.345 359.348 216.735 360.347 215.736C362.289 213.739 370.002 207.08 370.002 204.638C370.002 200.754 367.894 199.81 363.843 195.76C362.622 194.539 361.679 193.595 360.513 192.43C358.072 189.988 358.127 189.6 354.964 189.6C353.022 189.6 350.802 191.82 350.802 193.762V193.762ZM326.885 223.172C326.885 228.777 334.432 229.665 336.208 224.837L340.536 207.746C341.424 204.194 346.03 187.491 346.03 184.162C346.03 179.834 338.594 177.947 336.652 183.108C336.097 184.606 335.598 187.214 335.265 188.712C334.266 192.597 333.322 196.481 332.379 200.199C331.713 202.751 326.885 221.064 326.885 223.172Z" fill="#FEFDFD"/>
<path fill-rule="evenodd" clip-rule="evenodd" d="M37.9977 203.362C37.9977 207.191 40.1064 208.134 44.1572 212.185C45.3225 213.406 46.3214 214.349 47.4867 215.57C49.9283 217.956 49.8728 218.345 53.0358 218.345C55.5884 218.345 57.1422 216.014 57.1422 212.906C57.1422 210.076 51.3156 206.247 49.8173 203.972C52.3144 200.199 57.1422 199.089 57.1422 193.762C57.1422 191.154 54.8116 189.6 51.7595 189.6C49.2624 189.6 42.7699 197.091 40.7722 199.089C39.7734 200.143 37.9977 201.475 37.9977 203.362V203.362Z" fill="#FEFDFD"/>
<path d="M313.761 226.34C313.761 230.102 313.097 233.718 311.769 237.112C310.441 240.506 308.449 243.605 305.719 246.482C302.915 249.433 299.078 251.721 294.135 253.418C289.192 255.115 283.363 256 276.796 256C267.5 256 259.015 254.967 251.194 252.975C249.423 252.532 248.538 251.647 248.538 250.319V237.038C248.538 235.341 249.349 234.456 250.972 234.456H251.341C266.172 235.562 274.73 236.079 277.091 236.079C281.592 236.079 284.691 235.341 286.462 233.865C288.232 232.39 289.118 229.955 289.118 226.635C289.118 224.643 288.528 222.946 287.273 221.544C286.093 220.142 283.732 218.371 280.19 216.305L261.523 205.238C255.621 201.696 251.489 197.86 249.128 193.58C246.767 189.375 245.513 184.653 245.513 179.414C245.513 161.78 257.096 153 280.19 153C285.06 153 290.372 153.295 296.201 153.959C302.03 154.549 306.235 155.287 308.891 155.951C310.22 156.542 310.884 157.353 310.884 158.386V172.11C310.884 173.585 310.146 174.397 308.596 174.397H308.301C299.374 173.364 289.856 172.921 279.674 172.921C275.837 172.921 273.181 173.438 271.558 174.618C269.861 175.725 269.049 177.569 269.049 180.078C269.049 181.996 269.713 183.546 270.894 184.726C272.148 185.981 274.509 187.53 278.124 189.522L295.463 198.893C302.177 202.508 306.899 206.492 309.629 210.919C312.359 215.346 313.761 220.511 313.761 226.34V226.34Z" fill="#FEFDFD"/>
<path d="M235.404 185.612V186.866C235.404 192.842 234.298 198.081 232.01 202.508C229.723 206.935 226.624 210.329 222.64 212.764C218.73 215.125 214.45 216.895 209.949 217.928C205.449 219.035 200.505 219.552 195.045 219.552C194.529 219.552 190.84 219.478 184.126 219.183V252.09C184.126 252.754 183.831 253.418 183.314 253.934C182.724 254.524 182.134 254.746 181.396 254.746H163.909C163.245 254.746 162.581 254.524 162.065 254.008C161.475 253.491 161.253 252.901 161.253 252.163V161.264C161.253 158.976 161.696 157.427 162.581 156.615C163.467 155.73 165.09 155.14 167.303 154.771C174.829 153.59 183.978 153 194.824 153C200.284 153 205.301 153.516 209.876 154.549C214.45 155.582 218.73 157.279 222.64 159.714C226.624 162.075 229.723 165.469 232.01 169.822C234.298 174.249 235.404 179.488 235.404 185.612V185.612ZM212.384 186.866V185.612C212.384 180.816 210.982 177.422 208.105 175.356C205.301 173.29 200.948 172.183 195.045 172.183C194.455 172.183 192.611 172.257 189.512 172.405C186.413 172.552 184.642 172.626 184.126 172.626V200.221C184.273 200.221 185.528 200.294 187.815 200.368C190.102 200.442 191.799 200.516 192.906 200.516H195.045C201.022 200.516 205.375 199.335 208.179 197.122C210.982 194.835 212.384 191.441 212.384 186.866V186.866Z" fill="#FEFDFD"/>
<path d="M142.955 158.165V172.479C142.955 173.659 142.291 174.249 140.963 174.249H140.52L128.346 173.585C123.477 173.29 118.164 173.143 112.409 173.143C106.507 173.143 102.08 174.913 99.1286 178.307C96.1035 181.701 94.6279 187.678 94.6279 196.163V213.059C94.6279 221.544 96.1035 227.52 99.1286 230.914C102.08 234.382 105.621 236.079 109.827 236.079C113.516 236.079 116.984 235.931 120.23 235.71V204.574C120.23 203.836 120.452 203.172 120.968 202.655C121.485 202.139 122.075 201.844 122.813 201.844H140.151C140.816 201.844 141.48 202.139 141.996 202.655C142.586 203.172 142.808 203.836 142.808 204.574V250.024C142.808 251.647 141.922 252.68 140.151 253.122C130.634 255.041 120.525 256 109.827 256C106.433 256 103.187 255.631 99.8664 254.819C96.5462 254.082 93.1522 252.68 89.6107 250.614C86.1429 248.622 83.044 246.039 80.3879 242.941C77.7317 239.842 75.5183 235.71 73.8213 230.545C72.1243 225.38 71.2389 219.552 71.2389 212.985V196.163C71.2389 187.973 72.4194 180.89 74.8542 174.987C77.2153 169.085 80.4617 164.584 84.5935 161.559C88.6515 158.46 93.0047 156.246 97.5791 154.992C102.08 153.664 107.023 153 112.409 153C121.706 153 131.076 154.033 140.668 156.099C142.217 156.394 142.955 157.058 142.955 158.165V158.165Z" fill="#FEFDFD"/>
<defs>
<linearGradient id="paint0_linear" x1="255.678" y1="395.394" x2="-5.68912" y2="91.6896" gradientUnits="userSpaceOnUse">
<stop stop-color="#FF0054"/>
<stop offset="1" stop-color="#FB8A08"/>
</linearGradient>
</defs>
</svg>
