<svg width="2008" height="418" viewBox="0 0 2008 418" fill="none" xmlns="http://www.w3.org/2000/svg">
<g filter="url(#filter0_d)">
<path d="M331.978 0H85.0225C40.275 0 4 36.275 4 81.0225V327.978C4 372.725 40.275 409 85.0225 409H331.978C376.725 409 413 372.725 413 327.978V81.0225C413 36.275 376.725 0 331.978 0Z" fill="url(#paint0_linear)"/>
<path fill-rule="evenodd" clip-rule="evenodd" d="M320 64C324.8 68.8 329 61.4 342 74.4C349.4 81.8 344.6 88.6 350 94C352.4 96.4 363.2 95.4 357.2 78.2C348.6 54.2 323.4 51.8 320 55.4C317.4 58 317.4 61.4 320 64V64Z" fill="#FEFDFD"/>
<path fill-rule="evenodd" clip-rule="evenodd" d="M328.4 38.6C332.4 42.8 331 41 337.8 42C353.2 44 364.4 53.4 369.4 68.2C372.8 78.2 369.2 79.6 373.6 84C378 88.4 387.4 85.2 380.6 65C369.8 32.4 334.4 26.4 328.8 31.8C327.4 33.2 326.8 37.2 328.4 38.6V38.6Z" fill="#FEFDFD"/>
<path fill-rule="evenodd" clip-rule="evenodd" d="M354.802 193.762C354.802 199.089 359.63 200.199 362.183 203.972C359.63 207.746 354.802 208.911 354.802 214.183C354.802 216.791 357.133 218.344 360.24 218.344C362.072 218.344 363.348 216.735 364.347 215.736C366.289 213.739 374.002 207.08 374.002 204.638C374.002 200.754 371.894 199.81 367.843 195.76C366.622 194.539 365.679 193.595 364.513 192.43C362.072 189.988 362.127 189.6 358.964 189.6C357.022 189.6 354.802 191.82 354.802 193.762V193.762ZM330.885 223.172C330.885 228.777 338.432 229.665 340.208 224.837L344.536 207.746C345.424 204.194 350.03 187.491 350.03 184.162C350.03 179.834 342.594 177.947 340.652 183.108C340.097 184.606 339.598 187.214 339.265 188.712C338.266 192.597 337.322 196.481 336.379 200.199C335.713 202.751 330.885 221.064 330.885 223.172Z" fill="#FEFDFD"/>
<path fill-rule="evenodd" clip-rule="evenodd" d="M41.9977 203.362C41.9977 207.191 44.1064 208.134 48.1572 212.185C49.3225 213.406 50.3214 214.349 51.4867 215.57C53.9283 217.956 53.8728 218.344 57.0358 218.344C59.5884 218.344 61.1422 216.014 61.1422 212.906C61.1422 210.076 55.3156 206.247 53.8173 203.972C56.3144 200.199 61.1422 199.089 61.1422 193.762C61.1422 191.154 58.8116 189.6 55.7595 189.6C53.2624 189.6 46.7699 197.091 44.7722 199.089C43.7734 200.143 41.9977 201.475 41.9977 203.362V203.362Z" fill="#FEFDFD"/>
<path d="M317.761 226.34C317.761 230.102 317.097 233.718 315.769 237.112C314.441 240.506 312.449 243.605 309.719 246.482C306.915 249.433 303.078 251.721 298.135 253.418C293.192 255.115 287.363 256 280.796 256C271.5 256 263.015 254.967 255.194 252.975C253.423 252.532 252.538 251.647 252.538 250.319V237.038C252.538 235.341 253.349 234.456 254.972 234.456H255.341C270.172 235.562 278.73 236.079 281.091 236.079C285.592 236.079 288.691 235.341 290.462 233.865C292.232 232.39 293.118 229.955 293.118 226.635C293.118 224.643 292.528 222.946 291.273 221.544C290.093 220.142 287.732 218.371 284.19 216.305L265.523 205.238C259.621 201.696 255.489 197.86 253.128 193.58C250.767 189.375 249.513 184.653 249.513 179.414C249.513 161.78 261.096 153 284.19 153C289.06 153 294.372 153.295 300.201 153.959C306.03 154.549 310.235 155.287 312.891 155.951C314.22 156.542 314.884 157.353 314.884 158.386V172.11C314.884 173.585 314.146 174.397 312.596 174.397H312.301C303.374 173.364 293.856 172.921 283.674 172.921C279.837 172.921 277.181 173.438 275.558 174.618C273.861 175.725 273.049 177.569 273.049 180.078C273.049 181.996 273.713 183.546 274.894 184.726C276.148 185.981 278.509 187.53 282.124 189.522L299.463 198.893C306.177 202.508 310.899 206.492 313.629 210.919C316.359 215.346 317.761 220.511 317.761 226.34V226.34Z" fill="#FEFDFD"/>
<path d="M239.404 185.612V186.866C239.404 192.842 238.298 198.081 236.01 202.508C233.723 206.935 230.624 210.329 226.64 212.764C222.73 215.125 218.45 216.895 213.949 217.928C209.449 219.035 204.505 219.552 199.045 219.552C198.529 219.552 194.84 219.478 188.126 219.183V252.09C188.126 252.754 187.831 253.418 187.314 253.934C186.724 254.524 186.134 254.746 185.396 254.746H167.909C167.245 254.746 166.581 254.524 166.065 254.008C165.475 253.491 165.253 252.901 165.253 252.163V161.264C165.253 158.976 165.696 157.427 166.581 156.615C167.467 155.73 169.09 155.14 171.303 154.771C178.829 153.59 187.978 153 198.824 153C204.284 153 209.301 153.516 213.876 154.549C218.45 155.582 222.73 157.279 226.64 159.714C230.624 162.075 233.723 165.469 236.01 169.822C238.298 174.249 239.404 179.488 239.404 185.612V185.612ZM216.384 186.866V185.612C216.384 180.816 214.982 177.422 212.105 175.356C209.301 173.29 204.948 172.183 199.045 172.183C198.455 172.183 196.611 172.257 193.512 172.405C190.413 172.552 188.642 172.626 188.126 172.626V200.221C188.273 200.221 189.528 200.294 191.815 200.368C194.102 200.442 195.799 200.516 196.906 200.516H199.045C205.022 200.516 209.375 199.335 212.179 197.122C214.982 194.835 216.384 191.441 216.384 186.866V186.866Z" fill="#FEFDFD"/>
<path d="M146.955 158.165V172.479C146.955 173.659 146.291 174.249 144.963 174.249H144.52L132.346 173.585C127.477 173.29 122.164 173.143 116.409 173.143C110.507 173.143 106.08 174.913 103.129 178.307C100.104 181.701 98.6279 187.678 98.6279 196.163V213.059C98.6279 221.544 100.104 227.52 103.129 230.914C106.08 234.382 109.621 236.079 113.827 236.079C117.516 236.079 120.984 235.931 124.23 235.71V204.574C124.23 203.836 124.452 203.172 124.968 202.655C125.485 202.139 126.075 201.844 126.813 201.844H144.151C144.816 201.844 145.48 202.139 145.996 202.655C146.586 203.172 146.808 203.836 146.808 204.574V250.024C146.808 251.647 145.922 252.68 144.151 253.122C134.634 255.041 124.525 256 113.827 256C110.433 256 107.187 255.631 103.866 254.819C100.546 254.082 97.1522 252.68 93.6107 250.614C90.1429 248.622 87.044 246.039 84.3879 242.941C81.7317 239.842 79.5183 235.71 77.8213 230.545C76.1243 225.38 75.2389 219.552 75.2389 212.985V196.163C75.2389 187.973 76.4194 180.89 78.8542 174.987C81.2153 169.085 84.4617 164.584 88.5935 161.559C92.6515 158.46 97.0047 156.246 101.579 154.992C106.08 153.664 111.023 153 116.409 153C125.706 153 135.076 154.033 144.668 156.099C146.217 156.394 146.955 157.058 146.955 158.165V158.165Z" fill="#FEFDFD"/>
<path d="M1936.13 243.14C1936.13 248.843 1935.29 254.107 1933.6 258.927C1931.92 263.754 1929.18 268.359 1925.38 272.742C1921.58 277.131 1915.99 280.599 1908.6 283.159C1901.22 285.72 1892.34 287 1881.96 287C1870.56 287 1858.43 285.975 1845.56 283.93C1843.81 283.636 1842.68 283.231 1842.17 282.722C1841.65 282.212 1841.4 281.298 1841.4 279.979V271.207C1841.4 268.868 1842.64 267.699 1845.12 267.699H1845.78C1858.94 268.574 1871 269.019 1881.96 269.019C1894.39 269.019 1903.05 266.785 1907.95 262.33C1912.84 257.869 1915.29 251.475 1915.29 243.14C1915.29 237.732 1913.5 233.056 1909.92 229.104C1906.34 225.159 1899.36 220.045 1888.98 213.755L1867.71 200.816C1857.18 194.389 1849.51 188.066 1844.69 181.848C1839.86 175.637 1837.45 168.289 1837.45 159.811C1837.45 133.939 1854.92 121 1889.86 121C1901.99 121 1914.71 121.875 1928.01 123.632C1930.5 124.07 1931.74 125.311 1931.74 127.362V136.787C1931.74 139.125 1930.5 140.294 1928.01 140.294H1927.57C1914.71 139.419 1902.14 138.981 1889.86 138.981C1878.16 138.981 1869.87 140.477 1864.97 143.475C1860.07 146.473 1857.63 151.92 1857.63 159.811C1857.63 164.781 1859.38 169.099 1862.88 172.75C1866.39 176.407 1872.61 180.94 1881.53 186.348L1901.7 198.406C1914.42 205.865 1923.33 212.991 1928.45 219.79C1933.57 226.583 1936.13 234.369 1936.13 243.14V243.14Z" fill="url(#paint1_linear)"/>
<path d="M1809.38 126.702V279.103C1809.38 280.86 1808.76 282.356 1807.52 283.597C1806.27 284.838 1804.77 285.465 1803.02 285.465H1789.42C1785.77 285.465 1783.43 284.296 1782.41 281.951L1714.65 153.233C1714.36 152.796 1714.14 152.574 1713.99 152.574C1713.85 152.574 1713.77 152.796 1713.77 153.233V281.298C1713.77 284.074 1712.46 285.465 1709.82 285.465H1698.43C1695.79 285.465 1694.47 284.583 1694.47 282.833V128.675C1694.47 126.918 1695.09 125.461 1696.34 124.292C1697.58 123.116 1699.08 122.535 1700.84 122.535H1712.89C1715.82 122.535 1717.83 122.829 1718.92 123.41C1720.02 123.998 1721.01 125.167 1721.89 126.918L1789.21 254.982L1789.65 255.642C1789.79 255.642 1789.86 255.42 1789.86 254.982V126.702C1789.86 123.926 1791.18 122.535 1793.81 122.535H1805.43C1808.06 122.535 1809.38 123.926 1809.38 126.702V126.702Z" fill="url(#paint2_linear)"/>
<path d="M1664.21 189.856V218.144C1664.21 241.383 1658.88 258.673 1648.2 270.005C1637.53 281.331 1623.14 287 1605 287C1586.88 287 1572.44 281.331 1561.7 270.005C1550.96 258.673 1545.58 241.383 1545.58 218.144V189.856C1545.58 166.61 1550.96 149.321 1561.7 137.995C1572.44 126.663 1586.88 121 1605 121C1623.14 121 1637.53 126.663 1648.2 137.995C1658.88 149.321 1664.21 166.61 1664.21 189.856V189.856ZM1644.04 218.144V189.856C1644.04 155.937 1631.03 138.981 1605 138.981C1578.84 138.981 1565.76 155.937 1565.76 189.856V218.144C1565.76 252.056 1578.84 269.019 1605 269.019C1631.03 269.019 1644.04 252.056 1644.04 218.144Z" fill="url(#paint3_linear)"/>
<path d="M1513.13 126.702V281.076C1513.13 284.002 1511.81 285.465 1509.18 285.465H1497.12C1494.49 285.465 1493.17 284.002 1493.17 281.076V126.702C1493.17 123.926 1494.49 122.535 1497.12 122.535H1509.18C1511.81 122.535 1513.13 123.926 1513.13 126.702V126.702Z" fill="url(#paint4_linear)"/>
<path d="M1466.2 125.48V135.134C1466.2 137.472 1464.81 138.641 1462.03 138.641H1419.27V280.076C1419.27 283.002 1417.96 284.465 1415.33 284.465H1403.26C1400.64 284.465 1399.32 283.002 1399.32 280.076V138.641H1356.56C1353.64 138.641 1352.17 137.472 1352.17 135.134V125.48C1352.17 122.848 1353.64 121.535 1356.56 121.535H1462.03C1464.81 121.535 1466.2 122.848 1466.2 125.48V125.48Z" fill="url(#paint5_linear)"/>
<path d="M1338.14 281.951C1338.14 284.296 1336.9 285.465 1334.41 285.465H1321.48C1319.86 285.465 1318.62 284.368 1317.75 282.173L1303.49 231.736H1246.7L1232.67 282.173C1231.79 284.368 1230.47 285.465 1228.71 285.465H1215.78C1213.29 285.465 1212.05 284.296 1212.05 281.951C1212.05 281.076 1212.12 280.566 1212.27 280.416L1252.83 137.669C1254.45 131.673 1257.37 127.394 1261.61 124.834C1265.85 122.28 1270.38 121 1275.21 121C1287.05 121 1294.43 126.48 1297.35 137.447L1337.92 280.416C1338.07 280.566 1338.14 281.076 1338.14 281.951V281.951ZM1299.33 214.415L1279.37 142.273C1278.78 139.641 1277.4 138.322 1275.21 138.322C1273.01 138.322 1271.55 139.641 1270.82 142.273L1250.86 214.415H1299.33Z" fill="url(#paint6_linear)"/>
<path d="M1197.14 282.611C1197.14 284.511 1196.19 285.465 1194.29 285.465H1180.26C1177.62 285.465 1175.72 284.511 1174.55 282.611L1135.3 217.262H1133.33H1129.6C1121.27 217.262 1113.23 217.047 1105.48 216.609V281.076C1105.48 284.002 1104.16 285.465 1101.53 285.465H1089.69C1087.06 285.465 1085.74 284.002 1085.74 281.076V127.577C1085.74 125.971 1086.11 124.834 1086.84 124.181C1087.57 123.521 1088.96 123.044 1091.01 122.75C1101.09 121.581 1113.96 121 1129.6 121C1170.53 121 1191 136.715 1191 168.145V169.68C1191 181.522 1187.89 191.169 1181.68 198.628C1175.47 206.08 1167.09 211.201 1156.57 213.977L1196.48 280.638C1196.92 281.226 1197.14 281.879 1197.14 282.611ZM1171.26 169.68V168.145C1171.26 157.472 1167.87 149.941 1161.07 145.559C1154.27 141.176 1143.78 138.981 1129.6 138.981C1117.03 138.981 1108.99 139.204 1105.48 139.641V199.725C1118.34 200.012 1126.38 200.163 1129.6 200.163C1143.78 200.163 1154.27 197.929 1161.07 193.474C1167.87 189.013 1171.26 181.084 1171.26 169.68Z" fill="url(#paint7_linear)"/>
<path d="M1051.54 205.205V278.881C1051.54 281.664 1050.22 283.27 1047.59 283.708C1034.14 285.903 1019.59 287 1003.95 287C996.791 287 989.952 285.752 983.447 283.27C976.941 280.782 970.912 276.981 965.354 271.866C959.802 266.752 955.38 259.626 952.088 250.488C948.803 241.351 947.157 230.789 947.157 218.804V189.418C947.157 176.695 948.875 165.696 952.311 156.414C955.746 147.133 960.384 140.007 966.236 135.036C972.082 130.066 978.26 126.48 984.766 124.292C991.271 122.097 998.319 121 1005.92 121C1022.3 121 1036.19 122.025 1047.59 124.07C1050.08 124.364 1051.32 125.461 1051.32 127.362V138.322C1051.32 139.785 1050.36 140.516 1048.46 140.516H1047.59C1035.46 139.491 1021.56 138.981 1005.92 138.981C980.05 138.981 967.111 155.794 967.111 189.418V218.804C967.111 235.903 970.508 248.588 977.307 256.844C984.106 265.106 992.989 269.234 1003.95 269.234C1015.35 269.234 1024.56 268.797 1031.58 267.921V205.205C1031.58 202.279 1032.9 200.816 1035.53 200.816H1047.37C1048.54 200.816 1049.53 201.26 1050.33 202.135C1051.13 203.01 1051.54 204.036 1051.54 205.205V205.205Z" fill="url(#paint8_linear)"/>
<path d="M922.376 271.644V282.833C922.376 284.734 921.645 285.752 920.182 285.903C914.773 286.634 900.522 287 877.426 287C861.639 287 849.902 283.78 842.227 277.346C834.553 270.919 830.719 260.541 830.719 246.21V161.783C830.719 147.459 834.553 137.081 842.227 130.647C849.902 124.214 861.639 121 877.426 121C898.621 121 912.873 121.438 920.182 122.313C921.645 122.463 922.376 123.482 922.376 125.383V136.349C922.376 138.106 921.573 138.981 919.966 138.981H877.641C866.531 138.981 859.262 140.588 855.826 143.802C852.39 147.022 850.673 153.018 850.673 161.783V192.266H917.994C919.163 192.266 920.182 192.704 921.063 193.579C921.939 194.461 922.376 195.48 922.376 196.655V204.983C922.376 206.152 921.939 207.178 921.063 208.053C920.182 208.935 919.163 209.372 917.994 209.372H850.673V246.21C850.673 254.982 852.39 260.978 855.826 264.192C859.262 267.405 866.531 269.019 877.641 269.019H919.966C921.573 269.019 922.376 269.894 922.376 271.644Z" fill="url(#paint9_linear)"/>
<path d="M805.938 126.48V136.134C805.938 138.472 804.547 139.641 801.771 139.641H759.009V281.076C759.009 284.002 757.696 285.465 755.063 285.465H743.006C740.374 285.465 739.055 284.002 739.055 281.076V139.641H696.299C693.373 139.641 691.91 138.472 691.91 136.134V126.48C691.91 123.848 693.373 122.535 696.299 122.535H801.771C804.547 122.535 805.938 123.848 805.938 126.48V126.48Z" fill="url(#paint10_linear)"/>
<path d="M667.129 126.702V279.103C667.129 280.86 666.508 282.356 665.267 283.597C664.026 284.838 662.524 285.465 660.774 285.465H647.175C643.524 285.465 641.179 284.296 640.16 281.951L572.401 153.233C572.107 152.796 571.885 152.574 571.742 152.574C571.598 152.574 571.52 152.796 571.52 153.233V281.298C571.52 284.074 570.207 285.465 567.575 285.465H556.177C553.545 285.465 552.225 284.583 552.225 282.833V128.675C552.225 126.918 552.846 125.461 554.093 124.292C555.334 123.116 556.83 122.535 558.587 122.535H570.644C573.571 122.535 575.582 122.829 576.673 123.41C577.77 123.998 578.757 125.167 579.638 126.918L646.959 254.982L647.397 255.642C647.541 255.642 647.612 255.42 647.612 254.982V126.702C647.612 123.926 648.932 122.535 651.564 122.535H663.184C665.816 122.535 667.129 123.926 667.129 126.702V126.702Z" fill="url(#paint11_linear)"/>
<path d="M515.825 126.702V281.076C515.825 284.002 514.512 285.465 511.88 285.465H499.816C497.184 285.465 495.871 284.002 495.871 281.076V126.702C495.871 123.926 497.184 122.535 499.816 122.535H511.88C514.512 122.535 515.825 123.926 515.825 126.702V126.702Z" fill="url(#paint12_linear)"/>
</g>
<defs>
<filter id="filter0_d" x="0" y="0" width="2008" height="418" filterUnits="userSpaceOnUse" color-interpolation-filters="sRGB">
<feFlood flood-opacity="0" result="BackgroundImageFix"/>
<feColorMatrix in="SourceAlpha" type="matrix" values="0 0 0 0 0 0 0 0 0 0 0 0 0 0 0 0 0 0 127 0" result="hardAlpha"/>
<feOffset dy="4"/>
<feGaussianBlur stdDeviation="2"/>
<feComposite in2="hardAlpha" operator="out"/>
<feColorMatrix type="matrix" values="0 0 0 0 0 0 0 0 0 0 0 0 0 0 0 0 0 0 0.25 0"/>
<feBlend mode="normal" in2="BackgroundImageFix" result="effect1_dropShadow"/>
<feBlend mode="normal" in="SourceGraphic" in2="effect1_dropShadow" result="shape"/>
</filter>
<linearGradient id="paint0_linear" x1="259.678" y1="395.394" x2="-1.68912" y2="91.6896" gradientUnits="userSpaceOnUse">
<stop stop-color="#FF0054"/>
<stop offset="1" stop-color="#FB8A08"/>
</linearGradient>
<linearGradient id="paint1_linear" x1="1868.33" y1="326.08" x2="1864.24" y2="121.053" gradientUnits="userSpaceOnUse">
<stop stop-color="#2E2B28"/>
<stop offset="1" stop-color="#595959"/>
</linearGradient>
<linearGradient id="paint2_linear" x1="1730.43" y1="323.822" x2="1727.05" y2="122.563" gradientUnits="userSpaceOnUse">
<stop stop-color="#2E2B28"/>
<stop offset="1" stop-color="#595959"/>
</linearGradient>
<linearGradient id="paint3_linear" x1="1582.7" y1="326.08" x2="1579.3" y2="121.028" gradientUnits="userSpaceOnUse">
<stop stop-color="#2E2B28"/>
<stop offset="1" stop-color="#595959"/>
</linearGradient>
<linearGradient id="paint4_linear" x1="1499.42" y1="323.822" x2="1480.13" y2="124.372" gradientUnits="userSpaceOnUse">
<stop stop-color="#2E2B28"/>
<stop offset="1" stop-color="#595959"/>
</linearGradient>
<linearGradient id="paint5_linear" x1="1387.85" y1="322.822" x2="1384.45" y2="121.564" gradientUnits="userSpaceOnUse">
<stop stop-color="#2E2B28"/>
<stop offset="1" stop-color="#595959"/>
</linearGradient>
<linearGradient id="paint6_linear" x1="1251.5" y1="324.183" x2="1248.37" y2="121.02" gradientUnits="userSpaceOnUse">
<stop stop-color="#2E2B28"/>
<stop offset="1" stop-color="#595959"/>
</linearGradient>
<linearGradient id="paint7_linear" x1="1120.6" y1="324.183" x2="1117.05" y2="121.034" gradientUnits="userSpaceOnUse">
<stop stop-color="#2E2B28"/>
<stop offset="1" stop-color="#595959"/>
</linearGradient>
<linearGradient id="paint8_linear" x1="979.819" y1="326.08" x2="975.956" y2="121.044" gradientUnits="userSpaceOnUse">
<stop stop-color="#2E2B28"/>
<stop offset="1" stop-color="#595959"/>
</linearGradient>
<linearGradient id="paint9_linear" x1="859.399" y1="326.08" x2="855" y2="121.066" gradientUnits="userSpaceOnUse">
<stop stop-color="#2E2B28"/>
<stop offset="1" stop-color="#595959"/>
</linearGradient>
<linearGradient id="paint10_linear" x1="727.59" y1="323.822" x2="724.183" y2="122.564" gradientUnits="userSpaceOnUse">
<stop stop-color="#2E2B28"/>
<stop offset="1" stop-color="#595959"/>
</linearGradient>
<linearGradient id="paint11_linear" x1="588.179" y1="323.822" x2="584.799" y2="122.563" gradientUnits="userSpaceOnUse">
<stop stop-color="#2E2B28"/>
<stop offset="1" stop-color="#595959"/>
</linearGradient>
<linearGradient id="paint12_linear" x1="502.115" y1="323.822" x2="482.822" y2="124.373" gradientUnits="userSpaceOnUse">
<stop stop-color="#2E2B28"/>
<stop offset="1" stop-color="#595959"/>
</linearGradient>
</defs>
</svg>
