<svg width="410" height="410" viewBox="0 0 410 410" fill="none" xmlns="http://www.w3.org/2000/svg">
<path fill-rule="evenodd" clip-rule="evenodd" d="M81.0225 0H327.978C372.725 0 409 36.275 409 81.0225V327.978C409 372.725 372.725 409 327.978 409H81.0225C36.275 409 0 372.725 0 327.978V81.0225C0 36.275 36.275 0 81.0225 0ZM321.693 65.9744C319.543 65.8857 317.814 65.8143 316 64.0001C313.4 61.4001 313.4 58.0001 316 55.4001C319.4 51.8001 344.6 54.2001 353.2 78.2001C359.2 95.4001 348.4 96.4001 346 94.0001C343.512 91.5123 343.189 88.7274 342.841 85.7236C342.433 82.2072 341.991 78.3909 338 74.4001C329.914 66.3137 325.232 66.1205 321.693 65.9744ZM324.4 38.6001C327.195 41.5343 327.353 41.5401 329.514 41.618C330.446 41.6516 331.751 41.6987 333.8 42.0001C349.2 44.0001 360.4 53.4001 365.4 68.2001C366.965 72.8026 367.047 75.5834 367.109 77.6733C367.181 80.1243 367.225 81.6252 369.6 84.0001C374 88.4001 383.4 85.2001 376.6 65.0001C365.8 32.4001 330.4 26.4001 324.8 31.8001C323.4 33.2001 322.8 37.2001 324.4 38.6001ZM354.911 200.644C352.804 198.874 350.802 197.192 350.802 193.762C350.802 191.82 353.022 189.6 354.964 189.6C357.745 189.6 358.038 189.9 359.728 191.632C359.96 191.87 360.218 192.135 360.513 192.43L363.843 195.76C364.688 196.605 365.449 197.315 366.124 197.945C368.682 200.332 370.002 201.565 370.002 204.638C370.002 206.579 365.128 211.185 362.153 213.996C361.386 214.721 360.745 215.327 360.347 215.736C360.296 215.787 360.245 215.839 360.193 215.892C360.167 215.919 360.14 215.947 360.113 215.975L360.062 216.028L359.949 216.146C359.012 217.121 357.837 218.345 356.24 218.345C353.133 218.345 350.802 216.791 350.802 214.183C350.802 210.789 352.803 209.097 354.909 207.316C356.075 206.33 357.273 205.317 358.183 203.972C357.274 202.629 356.076 201.623 354.911 200.644ZM336.208 224.837C334.432 229.665 326.886 228.777 326.886 223.172C326.886 221.189 331.157 204.87 332.218 200.814L332.236 200.745L332.379 200.199C332.783 198.609 333.186 196.989 333.594 195.351L333.596 195.342C334.141 193.153 334.694 190.933 335.265 188.712C335.289 188.601 335.315 188.483 335.342 188.361C335.384 188.164 335.429 187.954 335.476 187.734C335.793 186.246 336.204 184.316 336.652 183.108C338.594 177.947 346.03 179.834 346.03 184.162C346.03 186.861 343.003 198.349 341.384 204.494C341.006 205.929 340.704 207.073 340.536 207.746L336.208 224.837ZM37.9977 203.362C37.9977 206.383 39.3109 207.608 41.8555 209.981C42.5353 210.615 43.3031 211.331 44.1572 212.185C44.7399 212.795 45.2809 213.336 45.822 213.878C46.363 214.419 46.904 214.96 47.4867 215.57C47.7866 215.863 48.0488 216.126 48.2839 216.362C49.9632 218.046 50.2613 218.345 53.0358 218.345C55.5884 218.345 57.1422 216.014 57.1422 212.906C57.1422 211.091 54.7444 208.864 52.6297 206.901L52.6296 206.901L52.6293 206.9C51.4477 205.803 50.3544 204.788 49.8173 203.972C50.7121 202.62 51.906 201.61 53.0698 200.626C55.1542 198.862 57.1422 197.18 57.1422 193.762C57.1422 191.154 54.8116 189.6 51.7595 189.6C49.7118 189.6 44.9771 194.638 42.2378 197.553L42.2373 197.553L42.2364 197.554C41.636 198.193 41.1314 198.73 40.7722 199.089C40.5992 199.272 40.4029 199.463 40.1965 199.663C39.2115 200.621 37.9977 201.802 37.9977 203.362ZM311.769 237.112C313.097 233.718 313.761 230.102 313.761 226.34C313.761 220.511 312.359 215.346 309.629 210.919C306.899 206.492 302.177 202.508 295.463 198.893L278.124 189.522C274.509 187.53 272.148 185.981 270.894 184.726C269.713 183.546 269.049 181.996 269.049 180.078C269.049 177.569 269.861 175.725 271.558 174.618C273.181 173.438 275.837 172.921 279.674 172.921C289.856 172.921 299.374 173.364 308.301 174.397H308.596C310.146 174.397 310.884 173.585 310.884 172.11V158.386C310.884 157.353 310.22 156.542 308.892 155.951C306.235 155.287 302.03 154.549 296.201 153.959C290.372 153.295 285.06 153 280.19 153C257.096 153 245.513 161.78 245.513 179.414C245.513 184.653 246.767 189.375 249.128 193.58C251.489 197.86 255.621 201.696 261.523 205.238L280.19 216.305C283.732 218.371 286.093 220.142 287.273 221.544C288.528 222.946 289.118 224.643 289.118 226.635C289.118 229.955 288.232 232.39 286.462 233.865C284.691 235.341 281.592 236.079 277.091 236.079C274.73 236.079 266.172 235.562 251.341 234.456H250.972C249.349 234.456 248.538 235.341 248.538 237.038V250.319C248.538 251.647 249.423 252.532 251.194 252.975C259.015 254.967 267.5 256 276.796 256C283.363 256 289.192 255.115 294.135 253.418C299.078 251.721 302.915 249.433 305.719 246.482C308.449 243.605 310.441 240.506 311.769 237.112ZM235.404 185.612V186.866C235.404 192.842 234.298 198.081 232.01 202.508C229.723 206.935 226.624 210.329 222.64 212.764C218.73 215.125 214.45 216.895 209.949 217.928C205.449 219.035 200.505 219.552 195.045 219.552C194.529 219.552 190.84 219.478 184.126 219.183V252.09C184.126 252.754 183.831 253.418 183.314 253.934C182.724 254.524 182.134 254.746 181.396 254.746H163.909C163.245 254.746 162.581 254.524 162.065 254.008C161.475 253.491 161.253 252.901 161.253 252.163V161.264C161.253 158.976 161.696 157.427 162.581 156.615C163.467 155.73 165.09 155.14 167.303 154.771C174.829 153.59 183.978 153 194.824 153C200.284 153 205.301 153.516 209.876 154.549C214.45 155.582 218.73 157.279 222.64 159.714C226.624 162.075 229.723 165.469 232.01 169.822C234.298 174.249 235.404 179.488 235.404 185.612ZM212.384 186.866V185.612C212.384 180.816 210.982 177.422 208.105 175.356C205.301 173.29 200.948 172.183 195.045 172.183C194.455 172.183 192.611 172.257 189.512 172.405C186.413 172.552 184.642 172.626 184.126 172.626V200.221C184.172 200.221 184.325 200.228 184.584 200.24L184.588 200.24C185.16 200.267 186.244 200.318 187.815 200.368C188.451 200.389 189.041 200.409 189.586 200.428H189.586L189.587 200.428C191.001 200.477 192.107 200.516 192.906 200.516H195.045C201.022 200.516 205.375 199.335 208.179 197.122C210.982 194.835 212.384 191.441 212.384 186.866ZM142.955 172.479V158.165C142.955 157.058 142.217 156.394 140.668 156.099C131.076 154.033 121.706 153 112.409 153C107.023 153 102.08 153.664 97.5791 154.992C93.0047 156.246 88.6515 158.46 84.5935 161.559C80.4617 164.584 77.2153 169.085 74.8542 174.987C72.4194 180.89 71.2389 187.973 71.2389 196.163V212.985C71.2389 219.552 72.1243 225.38 73.8213 230.545C75.5183 235.71 77.7317 239.842 80.3879 242.941C83.0441 246.039 86.1429 248.622 89.6107 250.614C93.1522 252.68 96.5462 254.082 99.8664 254.819C103.187 255.631 106.433 256 109.827 256C120.525 256 130.634 255.041 140.152 253.122C141.922 252.68 142.808 251.647 142.808 250.024V204.574C142.808 203.836 142.586 203.172 141.996 202.655C141.48 202.139 140.816 201.844 140.152 201.844H122.813C122.075 201.844 121.485 202.139 120.968 202.655C120.452 203.172 120.23 203.836 120.23 204.574V235.71C116.984 235.931 113.516 236.079 109.827 236.079C105.621 236.079 102.08 234.382 99.1286 230.914C96.1035 227.52 94.6279 221.544 94.6279 213.059V196.163C94.6279 187.678 96.1035 181.701 99.1286 178.307C102.08 174.913 106.507 173.143 112.409 173.143C118.164 173.143 123.477 173.29 128.346 173.585L140.52 174.249H140.963C142.291 174.249 142.955 173.659 142.955 172.479Z" fill="url(#paint0_linear)"/>
<defs>
<linearGradient id="paint0_linear" x1="255.678" y1="395.394" x2="-5.68912" y2="91.6896" gradientUnits="userSpaceOnUse">
<stop stop-color="#F4F4F4"/>
<stop offset="1" stop-color="white"/>
</linearGradient>
</defs>
</svg>
