<svg width="2000" height="410" viewBox="0 0 2000 410" fill="none" xmlns="http://www.w3.org/2000/svg">
<path d="M327.978 0H81.0225C36.275 0 0 36.275 0 81.0225V327.978C0 372.725 36.275 409 81.0225 409H327.978C372.725 409 409 372.725 409 327.978V81.0225C409 36.275 372.725 0 327.978 0Z" fill="url(#paint0_linear)"/>
<path fill-rule="evenodd" clip-rule="evenodd" d="M316 64.0001C320.8 68.8001 325 61.4001 338 74.4001C345.4 81.8001 340.6 88.6001 346 94.0001C348.4 96.4001 359.2 95.4001 353.2 78.2001C344.6 54.2001 319.4 51.8001 316 55.4001C313.4 58.0001 313.4 61.4001 316 64.0001V64.0001Z" fill="#FEFDFD"/>
<path fill-rule="evenodd" clip-rule="evenodd" d="M324.4 38.6001C328.4 42.8001 327 41.0001 333.8 42.0001C349.2 44.0001 360.4 53.4001 365.4 68.2001C368.8 78.2001 365.2 79.6001 369.6 84.0001C374 88.4001 383.4 85.2001 376.6 65.0001C365.8 32.4001 330.4 26.4001 324.8 31.8001C323.4 33.2001 322.8 37.2001 324.4 38.6001V38.6001Z" fill="#FEFDFD"/>
<path fill-rule="evenodd" clip-rule="evenodd" d="M350.802 193.762C350.802 199.089 355.63 200.199 358.183 203.972C355.63 207.746 350.802 208.911 350.802 214.183C350.802 216.791 353.133 218.345 356.24 218.345C358.072 218.345 359.348 216.735 360.347 215.736C362.289 213.739 370.002 207.08 370.002 204.638C370.002 200.754 367.894 199.81 363.843 195.76C362.622 194.539 361.679 193.595 360.513 192.43C358.072 189.988 358.127 189.6 354.964 189.6C353.022 189.6 350.802 191.82 350.802 193.762V193.762ZM326.885 223.172C326.885 228.777 334.432 229.665 336.208 224.837L340.536 207.746C341.424 204.194 346.03 187.491 346.03 184.162C346.03 179.834 338.594 177.947 336.652 183.108C336.097 184.606 335.598 187.214 335.265 188.712C334.266 192.597 333.322 196.481 332.379 200.199C331.713 202.751 326.885 221.064 326.885 223.172Z" fill="#FEFDFD"/>
<path fill-rule="evenodd" clip-rule="evenodd" d="M37.9977 203.362C37.9977 207.191 40.1064 208.134 44.1572 212.185C45.3225 213.406 46.3214 214.349 47.4867 215.57C49.9283 217.956 49.8728 218.345 53.0358 218.345C55.5884 218.345 57.1422 216.014 57.1422 212.906C57.1422 210.076 51.3156 206.247 49.8173 203.972C52.3144 200.199 57.1422 199.089 57.1422 193.762C57.1422 191.154 54.8116 189.6 51.7595 189.6C49.2624 189.6 42.7699 197.091 40.7722 199.089C39.7734 200.143 37.9977 201.475 37.9977 203.362V203.362Z" fill="#FEFDFD"/>
<path d="M313.761 226.34C313.761 230.102 313.097 233.718 311.769 237.112C310.441 240.506 308.449 243.605 305.719 246.482C302.915 249.433 299.078 251.721 294.135 253.418C289.192 255.115 283.363 256 276.796 256C267.5 256 259.015 254.967 251.194 252.975C249.423 252.532 248.538 251.647 248.538 250.319V237.038C248.538 235.341 249.349 234.456 250.972 234.456H251.341C266.172 235.562 274.73 236.079 277.091 236.079C281.592 236.079 284.691 235.341 286.462 233.865C288.232 232.39 289.118 229.955 289.118 226.635C289.118 224.643 288.528 222.946 287.273 221.544C286.093 220.142 283.732 218.371 280.19 216.305L261.523 205.238C255.621 201.696 251.489 197.86 249.128 193.58C246.767 189.375 245.513 184.653 245.513 179.414C245.513 161.78 257.096 153 280.19 153C285.06 153 290.372 153.295 296.201 153.959C302.03 154.549 306.235 155.287 308.891 155.951C310.22 156.542 310.884 157.353 310.884 158.386V172.11C310.884 173.585 310.146 174.397 308.596 174.397H308.301C299.374 173.364 289.856 172.921 279.674 172.921C275.837 172.921 273.181 173.438 271.558 174.618C269.861 175.725 269.049 177.569 269.049 180.078C269.049 181.996 269.713 183.546 270.894 184.726C272.148 185.981 274.509 187.53 278.124 189.522L295.463 198.893C302.177 202.508 306.899 206.492 309.629 210.919C312.359 215.346 313.761 220.511 313.761 226.34V226.34Z" fill="#FEFDFD"/>
<path d="M235.404 185.612V186.866C235.404 192.842 234.298 198.081 232.01 202.508C229.723 206.935 226.624 210.329 222.64 212.764C218.73 215.125 214.45 216.895 209.949 217.928C205.449 219.035 200.505 219.552 195.045 219.552C194.529 219.552 190.84 219.478 184.126 219.183V252.09C184.126 252.754 183.831 253.418 183.314 253.934C182.724 254.524 182.134 254.746 181.396 254.746H163.909C163.245 254.746 162.581 254.524 162.065 254.008C161.475 253.491 161.253 252.901 161.253 252.163V161.264C161.253 158.976 161.696 157.427 162.581 156.615C163.467 155.73 165.09 155.14 167.303 154.771C174.829 153.59 183.978 153 194.824 153C200.284 153 205.301 153.516 209.876 154.549C214.45 155.582 218.73 157.279 222.64 159.714C226.624 162.075 229.723 165.469 232.01 169.822C234.298 174.249 235.404 179.488 235.404 185.612V185.612ZM212.384 186.866V185.612C212.384 180.816 210.982 177.422 208.105 175.356C205.301 173.29 200.948 172.183 195.045 172.183C194.455 172.183 192.611 172.257 189.512 172.405C186.413 172.552 184.642 172.626 184.126 172.626V200.221C184.273 200.221 185.528 200.294 187.815 200.368C190.102 200.442 191.799 200.516 192.906 200.516H195.045C201.022 200.516 205.375 199.335 208.179 197.122C210.982 194.835 212.384 191.441 212.384 186.866V186.866Z" fill="#FEFDFD"/>
<path d="M142.955 158.165V172.479C142.955 173.659 142.291 174.249 140.963 174.249H140.52L128.346 173.585C123.477 173.29 118.164 173.143 112.409 173.143C106.507 173.143 102.08 174.913 99.1286 178.307C96.1035 181.701 94.6279 187.678 94.6279 196.163V213.059C94.6279 221.544 96.1035 227.52 99.1286 230.914C102.08 234.382 105.621 236.079 109.827 236.079C113.516 236.079 116.984 235.931 120.23 235.71V204.574C120.23 203.836 120.452 203.172 120.968 202.655C121.485 202.139 122.075 201.844 122.813 201.844H140.151C140.816 201.844 141.48 202.139 141.996 202.655C142.586 203.172 142.808 203.836 142.808 204.574V250.024C142.808 251.647 141.922 252.68 140.151 253.122C130.634 255.041 120.525 256 109.827 256C106.433 256 103.187 255.631 99.8664 254.819C96.5462 254.082 93.1522 252.68 89.6107 250.614C86.1429 248.622 83.044 246.039 80.3879 242.941C77.7317 239.842 75.5183 235.71 73.8213 230.545C72.1243 225.38 71.2389 219.552 71.2389 212.985V196.163C71.2389 187.973 72.4194 180.89 74.8542 174.987C77.2153 169.085 80.4617 164.584 84.5935 161.559C88.6515 158.46 93.0047 156.246 97.5791 154.992C102.08 153.664 107.023 153 112.409 153C121.706 153 131.076 154.033 140.668 156.099C142.217 156.394 142.955 157.058 142.955 158.165V158.165Z" fill="#FEFDFD"/>
<path d="M1932.13 243.14C1932.13 248.843 1931.29 254.107 1929.6 258.927C1927.92 263.754 1925.18 268.359 1921.38 272.742C1917.58 277.131 1911.99 280.599 1904.6 283.159C1897.22 285.72 1888.34 287 1877.96 287C1866.56 287 1854.43 285.975 1841.56 283.93C1839.81 283.636 1838.68 283.231 1838.17 282.722C1837.65 282.212 1837.4 281.298 1837.4 279.979V271.207C1837.4 268.868 1838.64 267.699 1841.12 267.699H1841.78C1854.94 268.574 1867 269.019 1877.96 269.019C1890.39 269.019 1899.05 266.785 1903.95 262.33C1908.84 257.869 1911.29 251.475 1911.29 243.14C1911.29 237.732 1909.5 233.056 1905.92 229.104C1902.34 225.159 1895.36 220.045 1884.98 213.755L1863.71 200.816C1853.18 194.389 1845.51 188.066 1840.69 181.848C1835.86 175.637 1833.45 168.289 1833.45 159.811C1833.45 133.939 1850.92 121 1885.86 121C1897.99 121 1910.71 121.875 1924.01 123.632C1926.5 124.07 1927.74 125.311 1927.74 127.362V136.787C1927.74 139.125 1926.5 140.294 1924.01 140.294H1923.57C1910.71 139.419 1898.14 138.981 1885.86 138.981C1874.16 138.981 1865.87 140.477 1860.97 143.475C1856.07 146.473 1853.63 151.92 1853.63 159.811C1853.63 164.781 1855.38 169.099 1858.88 172.75C1862.39 176.407 1868.61 180.94 1877.53 186.348L1897.7 198.406C1910.42 205.865 1919.33 212.991 1924.45 219.79C1929.57 226.583 1932.13 234.369 1932.13 243.14V243.14Z" fill="url(#paint1_linear)"/>
<path d="M1805.38 126.702V279.103C1805.38 280.86 1804.76 282.356 1803.52 283.597C1802.27 284.838 1800.77 285.465 1799.02 285.465H1785.42C1781.77 285.465 1779.43 284.296 1778.41 281.951L1710.65 153.233C1710.36 152.796 1710.14 152.574 1709.99 152.574C1709.85 152.574 1709.77 152.796 1709.77 153.233V281.298C1709.77 284.074 1708.46 285.465 1705.82 285.465H1694.43C1691.79 285.465 1690.47 284.583 1690.47 282.833V128.675C1690.47 126.918 1691.09 125.461 1692.34 124.292C1693.58 123.116 1695.08 122.535 1696.84 122.535H1708.89C1711.82 122.535 1713.83 122.829 1714.92 123.41C1716.02 123.998 1717.01 125.167 1717.89 126.918L1785.21 254.982L1785.65 255.642C1785.79 255.642 1785.86 255.42 1785.86 254.982V126.702C1785.86 123.926 1787.18 122.535 1789.81 122.535H1801.43C1804.06 122.535 1805.38 123.926 1805.38 126.702V126.702Z" fill="url(#paint2_linear)"/>
<path d="M1660.21 189.856V218.144C1660.21 241.383 1654.88 258.673 1644.2 270.005C1633.53 281.331 1619.14 287 1601 287C1582.88 287 1568.44 281.331 1557.7 270.005C1546.96 258.673 1541.58 241.383 1541.58 218.144V189.856C1541.58 166.61 1546.96 149.321 1557.7 137.995C1568.44 126.663 1582.88 121 1601 121C1619.14 121 1633.53 126.663 1644.2 137.995C1654.88 149.321 1660.21 166.61 1660.21 189.856V189.856ZM1640.04 218.144V189.856C1640.04 155.937 1627.03 138.981 1601 138.981C1574.84 138.981 1561.76 155.937 1561.76 189.856V218.144C1561.76 252.056 1574.84 269.019 1601 269.019C1627.03 269.019 1640.04 252.056 1640.04 218.144Z" fill="url(#paint3_linear)"/>
<path d="M1509.13 126.702V281.076C1509.13 284.002 1507.81 285.465 1505.18 285.465H1493.12C1490.49 285.465 1489.17 284.002 1489.17 281.076V126.702C1489.17 123.926 1490.49 122.535 1493.12 122.535H1505.18C1507.81 122.535 1509.13 123.926 1509.13 126.702V126.702Z" fill="url(#paint4_linear)"/>
<path d="M1462.2 125.48V135.134C1462.2 137.472 1460.81 138.641 1458.03 138.641H1415.27V280.076C1415.27 283.002 1413.96 284.465 1411.33 284.465H1399.26C1396.64 284.465 1395.32 283.002 1395.32 280.076V138.641H1352.56C1349.64 138.641 1348.17 137.472 1348.17 135.134V125.48C1348.17 122.848 1349.64 121.535 1352.56 121.535H1458.03C1460.81 121.535 1462.2 122.848 1462.2 125.48V125.48Z" fill="url(#paint5_linear)"/>
<path d="M1334.14 281.951C1334.14 284.296 1332.9 285.465 1330.41 285.465H1317.48C1315.86 285.465 1314.62 284.368 1313.75 282.173L1299.49 231.736H1242.7L1228.67 282.173C1227.79 284.368 1226.47 285.465 1224.71 285.465H1211.78C1209.29 285.465 1208.05 284.296 1208.05 281.951C1208.05 281.076 1208.12 280.566 1208.27 280.416L1248.83 137.669C1250.45 131.673 1253.37 127.394 1257.61 124.834C1261.85 122.28 1266.38 121 1271.21 121C1283.05 121 1290.43 126.48 1293.35 137.447L1333.92 280.416C1334.07 280.566 1334.14 281.076 1334.14 281.951V281.951ZM1295.33 214.415L1275.37 142.273C1274.78 139.641 1273.4 138.322 1271.21 138.322C1269.01 138.322 1267.55 139.641 1266.82 142.273L1246.86 214.415H1295.33Z" fill="url(#paint6_linear)"/>
<path d="M1193.14 282.611C1193.14 284.511 1192.19 285.465 1190.29 285.465H1176.26C1173.62 285.465 1171.72 284.511 1170.55 282.611L1131.3 217.262H1129.33H1125.6C1117.27 217.262 1109.23 217.047 1101.48 216.609V281.076C1101.48 284.002 1100.16 285.465 1097.53 285.465H1085.69C1083.06 285.465 1081.74 284.002 1081.74 281.076V127.577C1081.74 125.971 1082.11 124.834 1082.84 124.181C1083.57 123.521 1084.96 123.044 1087.01 122.75C1097.09 121.581 1109.96 121 1125.6 121C1166.53 121 1187 136.715 1187 168.145V169.68C1187 181.522 1183.89 191.169 1177.68 198.628C1171.47 206.08 1163.09 211.201 1152.57 213.977L1192.48 280.638C1192.92 281.226 1193.14 281.879 1193.14 282.611ZM1167.26 169.68V168.145C1167.26 157.472 1163.87 149.941 1157.07 145.559C1150.27 141.176 1139.78 138.981 1125.6 138.981C1113.03 138.981 1104.99 139.204 1101.48 139.641V199.725C1114.34 200.012 1122.38 200.163 1125.6 200.163C1139.78 200.163 1150.27 197.929 1157.07 193.474C1163.87 189.013 1167.26 181.084 1167.26 169.68Z" fill="url(#paint7_linear)"/>
<path d="M1047.54 205.205V278.881C1047.54 281.664 1046.22 283.27 1043.59 283.708C1030.14 285.903 1015.59 287 999.949 287C992.791 287 985.952 285.752 979.447 283.27C972.941 280.782 966.912 276.981 961.354 271.866C955.802 266.752 951.38 259.626 948.088 250.488C944.803 241.351 943.157 230.789 943.157 218.804V189.418C943.157 176.695 944.875 165.696 948.311 156.414C951.746 147.133 956.384 140.007 962.236 135.036C968.082 130.066 974.26 126.48 980.766 124.292C987.271 122.097 994.319 121 1001.92 121C1018.3 121 1032.19 122.025 1043.59 124.07C1046.08 124.364 1047.32 125.461 1047.32 127.362V138.322C1047.32 139.785 1046.36 140.516 1044.46 140.516H1043.59C1031.46 139.491 1017.56 138.981 1001.92 138.981C976.05 138.981 963.111 155.794 963.111 189.418V218.804C963.111 235.903 966.508 248.588 973.307 256.844C980.106 265.106 988.989 269.234 999.949 269.234C1011.35 269.234 1020.56 268.797 1027.58 267.921V205.205C1027.58 202.279 1028.9 200.816 1031.53 200.816H1043.37C1044.54 200.816 1045.53 201.26 1046.33 202.135C1047.13 203.01 1047.54 204.036 1047.54 205.205V205.205Z" fill="url(#paint8_linear)"/>
<path d="M918.376 271.644V282.833C918.376 284.734 917.645 285.752 916.182 285.903C910.773 286.634 896.522 287 873.426 287C857.639 287 845.902 283.78 838.227 277.346C830.553 270.919 826.719 260.541 826.719 246.21V161.783C826.719 147.459 830.553 137.081 838.227 130.647C845.902 124.214 857.639 121 873.426 121C894.621 121 908.873 121.438 916.182 122.313C917.645 122.463 918.376 123.482 918.376 125.383V136.349C918.376 138.106 917.573 138.981 915.966 138.981H873.641C862.531 138.981 855.262 140.588 851.826 143.802C848.39 147.022 846.673 153.018 846.673 161.783V192.266H913.994C915.163 192.266 916.182 192.704 917.063 193.579C917.939 194.461 918.376 195.48 918.376 196.655V204.983C918.376 206.152 917.939 207.178 917.063 208.053C916.182 208.935 915.163 209.372 913.994 209.372H846.673V246.21C846.673 254.982 848.39 260.978 851.826 264.192C855.262 267.405 862.531 269.019 873.641 269.019H915.966C917.573 269.019 918.376 269.894 918.376 271.644Z" fill="url(#paint9_linear)"/>
<path d="M801.938 126.48V136.134C801.938 138.472 800.547 139.641 797.771 139.641H755.009V281.076C755.009 284.002 753.696 285.465 751.063 285.465H739.006C736.374 285.465 735.055 284.002 735.055 281.076V139.641H692.299C689.373 139.641 687.91 138.472 687.91 136.134V126.48C687.91 123.848 689.373 122.535 692.299 122.535H797.771C800.547 122.535 801.938 123.848 801.938 126.48V126.48Z" fill="url(#paint10_linear)"/>
<path d="M663.129 126.702V279.103C663.129 280.86 662.508 282.356 661.267 283.597C660.026 284.838 658.524 285.465 656.774 285.465H643.175C639.524 285.465 637.179 284.296 636.16 281.951L568.401 153.233C568.107 152.796 567.885 152.574 567.742 152.574C567.598 152.574 567.52 152.796 567.52 153.233V281.298C567.52 284.074 566.207 285.465 563.575 285.465H552.177C549.545 285.465 548.225 284.583 548.225 282.833V128.675C548.225 126.918 548.846 125.461 550.093 124.292C551.334 123.116 552.83 122.535 554.587 122.535H566.644C569.571 122.535 571.582 122.829 572.673 123.41C573.77 123.998 574.757 125.167 575.638 126.918L642.959 254.982L643.397 255.642C643.541 255.642 643.612 255.42 643.612 254.982V126.702C643.612 123.926 644.932 122.535 647.564 122.535H659.184C661.816 122.535 663.129 123.926 663.129 126.702V126.702Z" fill="url(#paint11_linear)"/>
<path d="M511.825 126.702V281.076C511.825 284.002 510.512 285.465 507.88 285.465H495.816C493.184 285.465 491.871 284.002 491.871 281.076V126.702C491.871 123.926 493.184 122.535 495.816 122.535H507.88C510.512 122.535 511.825 123.926 511.825 126.702V126.702Z" fill="url(#paint12_linear)"/>
<defs>
<linearGradient id="paint0_linear" x1="255.678" y1="395.394" x2="-5.68912" y2="91.6896" gradientUnits="userSpaceOnUse">
<stop stop-color="#FF0054"/>
<stop offset="1" stop-color="#FB8A08"/>
</linearGradient>
<linearGradient id="paint1_linear" x1="1864.33" y1="326.08" x2="1860.24" y2="121.053" gradientUnits="userSpaceOnUse">
<stop stop-color="#F4F4F4"/>
<stop offset="1" stop-color="white"/>
</linearGradient>
<linearGradient id="paint2_linear" x1="1726.43" y1="323.822" x2="1723.05" y2="122.563" gradientUnits="userSpaceOnUse">
<stop stop-color="#F4F4F4"/>
<stop offset="1" stop-color="white"/>
</linearGradient>
<linearGradient id="paint3_linear" x1="1578.7" y1="326.08" x2="1575.3" y2="121.028" gradientUnits="userSpaceOnUse">
<stop stop-color="#F4F4F4"/>
<stop offset="1" stop-color="white"/>
</linearGradient>
<linearGradient id="paint4_linear" x1="1495.42" y1="323.822" x2="1476.13" y2="124.372" gradientUnits="userSpaceOnUse">
<stop stop-color="#F4F4F4"/>
<stop offset="1" stop-color="white"/>
</linearGradient>
<linearGradient id="paint5_linear" x1="1383.85" y1="322.822" x2="1380.45" y2="121.564" gradientUnits="userSpaceOnUse">
<stop stop-color="#F4F4F4"/>
<stop offset="1" stop-color="white"/>
</linearGradient>
<linearGradient id="paint6_linear" x1="1247.5" y1="324.183" x2="1244.37" y2="121.02" gradientUnits="userSpaceOnUse">
<stop stop-color="#F4F4F4"/>
<stop offset="1" stop-color="white"/>
</linearGradient>
<linearGradient id="paint7_linear" x1="1116.6" y1="324.183" x2="1113.05" y2="121.034" gradientUnits="userSpaceOnUse">
<stop stop-color="#F4F4F4"/>
<stop offset="1" stop-color="white"/>
</linearGradient>
<linearGradient id="paint8_linear" x1="975.819" y1="326.08" x2="971.956" y2="121.044" gradientUnits="userSpaceOnUse">
<stop stop-color="#F4F4F4"/>
<stop offset="1" stop-color="white"/>
</linearGradient>
<linearGradient id="paint9_linear" x1="855.399" y1="326.08" x2="851" y2="121.066" gradientUnits="userSpaceOnUse">
<stop stop-color="#F4F4F4"/>
<stop offset="1" stop-color="white"/>
</linearGradient>
<linearGradient id="paint10_linear" x1="723.59" y1="323.822" x2="720.183" y2="122.564" gradientUnits="userSpaceOnUse">
<stop stop-color="#F4F4F4"/>
<stop offset="1" stop-color="white"/>
</linearGradient>
<linearGradient id="paint11_linear" x1="584.179" y1="323.822" x2="580.799" y2="122.563" gradientUnits="userSpaceOnUse">
<stop stop-color="#F4F4F4"/>
<stop offset="1" stop-color="white"/>
</linearGradient>
<linearGradient id="paint12_linear" x1="498.115" y1="323.822" x2="478.822" y2="124.373" gradientUnits="userSpaceOnUse">
<stop stop-color="#F4F4F4"/>
<stop offset="1" stop-color="white"/>
</linearGradient>
</defs>
</svg>
